<svg xmlns="http://www.w3.org/2000/svg" width="24" height="24" viewBox="0 0 24 24" fill="none">
<path d="M12 5.25C11.4033 5.25 10.831 5.48705 10.409 5.90901C9.98706 6.33097 9.75001 6.90326 9.75001 7.5V10.5C9.75001 11.0967 9.98706 11.669 10.409 12.091C10.831 12.5129 11.4033 12.75 12 12.75C12.5967 12.75 13.169 12.5129 13.591 12.091C14.013 11.669 14.25 11.0967 14.25 10.5V7.5C14.25 6.90326 14.013 6.33097 13.591 5.90901C13.169 5.48705 12.5967 5.25 12 5.25ZM12 3.75C12.4925 3.75 12.9801 3.847 13.4351 4.03545C13.89 4.22391 14.3034 4.50013 14.6517 4.84835C14.9999 5.19657 15.2761 5.60997 15.4646 6.06494C15.653 6.51991 15.75 7.00754 15.75 7.5V10.5C15.75 11.4946 15.3549 12.4484 14.6517 13.1517C13.9484 13.8549 12.9946 14.25 12 14.25C11.0054 14.25 10.0516 13.8549 9.34836 13.1517C8.6451 12.4484 8.25001 11.4946 8.25001 10.5V7.5C8.25001 6.50544 8.6451 5.55161 9.34836 4.84835C10.0516 4.14509 11.0054 3.75 12 3.75ZM5.29126 11.25H6.80251C6.98423 12.4986 7.60941 13.64 8.56368 14.4655C9.51796 15.2909 10.7375 15.7452 11.9993 15.7452C13.261 15.7452 14.4806 15.2909 15.4348 14.4655C16.3891 13.64 17.0143 12.4986 17.196 11.25H18.708C18.5375 12.7715 17.855 14.19 16.7724 15.2727C15.6899 16.3553 14.2715 17.038 12.75 17.2087V20.25H11.25V17.2087C9.72836 17.0382 8.30985 16.3556 7.22714 15.2729C6.14444 14.1902 5.46182 12.7716 5.29126 11.25Z" fill="currentColor"/>
</svg>